<svg width="14" height="14" viewBox="0 0 14 14" fill="none" xmlns="http://www.w3.org/2000/svg">
<g clip-path="url(#clip0_0_8835)">
<path fill-rule="evenodd" clip-rule="evenodd" d="M7.0002 1.63328C4.03627 1.63328 1.63353 4.03602 1.63353 6.99995C1.63353 9.96388 4.03627 12.3666 7.0002 12.3666C9.96412 12.3666 12.3669 9.96388 12.3669 6.99995C12.3669 4.03602 9.96412 1.63328 7.0002 1.63328ZM0.700195 6.99995C0.700195 3.52056 3.5208 0.699951 7.0002 0.699951C10.4796 0.699951 13.3002 3.52056 13.3002 6.99995C13.3002 10.4793 10.4796 13.3 7.0002 13.3C3.5208 13.3 0.700195 10.4793 0.700195 6.99995Z" fill="#4D4D4D"/>
<path fill-rule="evenodd" clip-rule="evenodd" d="M7.00019 6.62358C7.25793 6.62358 7.46686 6.83251 7.46686 7.09024L7.46687 9.44579C7.46687 9.70352 7.25794 9.91246 7.00021 9.91246C6.74247 9.91246 6.53354 9.70353 6.53354 9.44579L6.53353 7.09025C6.53353 6.83251 6.74246 6.62358 7.00019 6.62358Z" fill="#4D4D4D"/>
<path fill-rule="evenodd" clip-rule="evenodd" d="M7.52801 4.75828C7.52801 5.04978 7.29171 5.28608 7.00021 5.28608C6.70871 5.28608 6.4724 5.04978 6.4724 4.75828C6.4724 4.46678 6.70871 4.23047 7.00021 4.23047C7.29171 4.23047 7.52801 4.46678 7.52801 4.75828Z" fill="#4D4D4D"/>
</g>
<defs>
<clipPath id="clip0_0_8835">
<rect width="14" height="14" fill="white"/>
</clipPath>
</defs>
</svg>
